G75*
%MOIN*%
%OFA0B0*%
%FSLAX24Y24*%
%IPPOS*%
%LPD*%
%AMOC8*
5,1,8,0,0,1.08239X$1,22.5*
%
%ADD10C,0.0000*%
%ADD11C,0.0060*%
%ADD12C,0.0050*%
%ADD13C,0.0040*%
%ADD14C,0.0080*%
%ADD15R,0.0492X0.2441*%
%ADD16C,0.0030*%
%ADD17C,0.0120*%
D10*
X000680Y000680D02*
X000680Y013426D01*
X020050Y013426D01*
X020050Y000680D01*
X000680Y000680D01*
D11*
X003430Y001430D02*
X003430Y001680D01*
X003430Y001430D02*
X003680Y001430D01*
X004680Y001430D02*
X004930Y001430D01*
X004930Y001680D01*
X004930Y002680D02*
X004930Y002930D01*
X004680Y002930D01*
X004680Y003430D02*
X004930Y003430D01*
X004930Y003680D01*
X003680Y003430D02*
X003430Y003430D01*
X003430Y003680D01*
X003430Y002930D02*
X003680Y002930D01*
X003430Y002930D02*
X003430Y002680D01*
X003430Y004680D02*
X003430Y004930D01*
X003680Y004930D01*
X004680Y004930D02*
X004930Y004930D01*
X004930Y004680D01*
X017680Y004680D02*
X017930Y004430D01*
X017680Y004180D01*
X017680Y003680D01*
X017930Y003430D01*
X017680Y003180D01*
X017680Y002680D01*
X017930Y002430D01*
X017680Y002180D01*
X017680Y001680D01*
X017930Y001430D01*
X018430Y001430D01*
X018680Y001680D01*
X018680Y002180D01*
X018430Y002430D01*
X018680Y002680D01*
X018680Y003180D01*
X018430Y003430D01*
X018680Y003680D01*
X018680Y004180D01*
X018430Y004430D01*
X018680Y004680D01*
X018680Y005180D01*
X018430Y005430D01*
X017930Y005430D01*
X017680Y005180D01*
X017680Y004680D01*
X017954Y006391D02*
X018454Y006391D01*
X018704Y006641D01*
X018704Y007141D01*
X018454Y007391D01*
X018704Y007641D01*
X018704Y008141D01*
X018454Y008391D01*
X018704Y008641D01*
X018704Y009141D01*
X018454Y009391D01*
X017954Y009391D01*
X017704Y009141D01*
X017704Y008641D01*
X017954Y008391D01*
X017704Y008141D01*
X017704Y007641D01*
X017954Y007391D01*
X017704Y007141D01*
X017704Y006641D01*
X017954Y006391D01*
D12*
X018180Y005855D02*
X018180Y005555D01*
X017955Y005780D01*
X018405Y005780D01*
X019130Y005018D02*
X019280Y005018D01*
X019355Y004943D01*
X019355Y004717D01*
X019505Y004717D02*
X019055Y004717D01*
X019055Y004943D01*
X019130Y005018D01*
X019355Y004867D02*
X019505Y005018D01*
X019505Y004557D02*
X019505Y004257D01*
X019055Y004257D01*
X019055Y004557D01*
X019280Y004407D02*
X019280Y004257D01*
X019280Y004097D02*
X019130Y004097D01*
X019055Y004022D01*
X019055Y003797D01*
X019505Y003797D01*
X019355Y003797D02*
X019355Y004022D01*
X019280Y004097D01*
X019280Y003636D02*
X019130Y003636D01*
X019055Y003561D01*
X019055Y003336D01*
X019505Y003336D01*
X019355Y003336D02*
X019355Y003561D01*
X019280Y003636D01*
X019505Y003176D02*
X019505Y002876D01*
X019055Y002876D01*
X019055Y003176D01*
X019280Y003026D02*
X019280Y002876D01*
X019055Y002716D02*
X019055Y002415D01*
X019055Y002566D02*
X019505Y002566D01*
X019430Y002255D02*
X019355Y002255D01*
X019280Y002180D01*
X019280Y002030D01*
X019205Y001955D01*
X019130Y001955D01*
X019055Y002030D01*
X019055Y002180D01*
X019130Y002255D01*
X019430Y002255D02*
X019505Y002180D01*
X019505Y002030D01*
X019430Y001955D01*
X018405Y001305D02*
X018405Y001005D01*
X018405Y001155D02*
X017955Y001155D01*
X018105Y001005D01*
X018953Y007114D02*
X019028Y007114D01*
X019103Y007189D01*
X019103Y007339D01*
X019178Y007414D01*
X019254Y007414D01*
X019329Y007339D01*
X019329Y007189D01*
X019254Y007114D01*
X018953Y007114D02*
X018878Y007189D01*
X018878Y007339D01*
X018953Y007414D01*
X018878Y007574D02*
X019329Y007574D01*
X019329Y007874D01*
X019329Y008034D02*
X018878Y008034D01*
X018878Y008260D01*
X018953Y008335D01*
X019103Y008335D01*
X019178Y008260D01*
X019178Y008034D01*
X018878Y007874D02*
X018878Y007574D01*
X019103Y007574D02*
X019103Y007724D01*
X019178Y008185D02*
X019329Y008335D01*
X019178Y008495D02*
X019329Y008645D01*
X019178Y008795D01*
X018878Y008795D01*
X018953Y008955D02*
X019254Y008955D01*
X019329Y009030D01*
X019329Y009180D01*
X019254Y009255D01*
X018953Y009255D01*
X018878Y009180D01*
X018878Y009030D01*
X018953Y008955D01*
X018878Y008495D02*
X019178Y008495D01*
X018429Y009455D02*
X018429Y009755D01*
X018429Y009605D02*
X017978Y009605D01*
X018128Y009455D01*
X017680Y010930D02*
X016680Y010930D01*
X016680Y012930D01*
X015680Y012930D01*
X015680Y010930D01*
X014680Y010930D01*
X014680Y012930D01*
X013680Y012930D01*
X013680Y010930D01*
X012680Y010930D01*
X012680Y012930D01*
X011680Y012930D01*
X011680Y010930D01*
X010680Y010930D01*
X010680Y012930D01*
X009680Y012930D01*
X009680Y010930D01*
X008680Y010930D01*
X008680Y012930D01*
X007680Y012930D01*
X007680Y010930D01*
X006680Y010930D01*
X006680Y011930D01*
X019680Y011930D01*
X019680Y010930D01*
X018680Y010930D01*
X018680Y012930D01*
X017680Y012930D01*
X017680Y010930D01*
X018680Y010930D01*
X019680Y011930D02*
X019680Y012930D01*
X018680Y012930D01*
X017680Y012930D02*
X016680Y012930D01*
X015680Y012930D02*
X014680Y012930D01*
X013680Y012930D02*
X012680Y012930D01*
X011680Y012930D02*
X010680Y012930D01*
X009680Y012930D02*
X008680Y012930D01*
X007680Y012930D02*
X006680Y012930D01*
X006680Y011930D01*
X007680Y010930D02*
X008680Y010930D01*
X009680Y010930D02*
X010680Y010930D01*
X011680Y010930D02*
X012680Y010930D01*
X013680Y010930D02*
X014680Y010930D01*
X015680Y010930D02*
X016680Y010930D01*
X005555Y004645D02*
X005405Y004795D01*
X005105Y004795D01*
X005105Y004495D02*
X005405Y004495D01*
X005555Y004645D01*
X005555Y004334D02*
X005555Y004034D01*
X005255Y004334D01*
X005180Y004334D01*
X005105Y004259D01*
X005105Y004109D01*
X005180Y004034D01*
X005555Y003874D02*
X005555Y003574D01*
X005555Y003724D02*
X005105Y003724D01*
X005255Y003574D01*
X005330Y003414D02*
X005330Y003113D01*
X005180Y003264D02*
X005480Y003264D01*
X005480Y002795D02*
X005180Y002795D01*
X005105Y002720D01*
X005105Y002495D01*
X005555Y002495D01*
X005555Y002720D01*
X005480Y002795D01*
X005555Y002334D02*
X005105Y002334D01*
X005105Y002034D02*
X005555Y002334D01*
X005555Y002034D02*
X005105Y002034D01*
X005180Y001874D02*
X005105Y001799D01*
X005105Y001649D01*
X005180Y001574D01*
X005480Y001574D01*
X005555Y001649D01*
X005555Y001799D01*
X005480Y001874D01*
X005330Y001874D01*
X005330Y001724D01*
X003019Y001263D02*
X003019Y004019D01*
X000814Y004019D01*
X000814Y001263D01*
X003019Y001263D01*
X000814Y001263D02*
X000263Y001263D01*
X000263Y004019D01*
X000814Y004019D01*
D13*
X000921Y004169D02*
X001228Y004169D01*
X001074Y004169D02*
X001074Y004629D01*
X000921Y004475D01*
X000767Y004629D02*
X000614Y004629D01*
X000691Y004629D02*
X000691Y004245D01*
X000614Y004169D01*
X000537Y004169D01*
X000460Y004245D01*
X004278Y005458D02*
X007082Y005458D01*
X006908Y005261D02*
X006832Y005338D01*
X006678Y005338D01*
X006601Y005261D01*
X006448Y005261D02*
X006371Y005338D01*
X006141Y005338D01*
X006141Y004878D01*
X006371Y004878D01*
X006448Y004954D01*
X006448Y005261D01*
X006601Y004878D02*
X006908Y005184D01*
X006908Y005261D01*
X006908Y004878D02*
X006601Y004878D01*
X007471Y004794D02*
X007826Y004794D01*
X007471Y004794D02*
X006566Y003889D01*
X006566Y001566D01*
X007826Y001566D01*
X008534Y001566D02*
X009794Y001566D01*
X009794Y003889D01*
X008889Y004794D01*
X008534Y004794D01*
X008534Y004696D02*
X008611Y004676D01*
X008686Y004653D01*
X008760Y004625D01*
X008832Y004594D01*
X008903Y004559D01*
X008972Y004521D01*
X009038Y004479D01*
X009103Y004434D01*
X009165Y004386D01*
X009225Y004334D01*
X009282Y004280D01*
X009336Y004223D01*
X009388Y004163D01*
X009436Y004101D01*
X009481Y004036D01*
X009522Y003969D01*
X009560Y003900D01*
X009595Y003829D01*
X009626Y003757D01*
X009654Y003683D01*
X009677Y003608D01*
X009697Y003532D01*
X009713Y003454D01*
X009725Y003376D01*
X009733Y003298D01*
X009737Y003219D01*
X009737Y003141D01*
X009733Y003062D01*
X009725Y002984D01*
X009713Y002906D01*
X009697Y002828D01*
X009677Y002752D01*
X009654Y002677D01*
X009626Y002603D01*
X009595Y002531D01*
X009560Y002460D01*
X009522Y002391D01*
X009481Y002324D01*
X009436Y002259D01*
X009388Y002197D01*
X009336Y002137D01*
X009282Y002080D01*
X009225Y002026D01*
X009165Y001974D01*
X009103Y001926D01*
X009038Y001881D01*
X008972Y001839D01*
X008903Y001801D01*
X008832Y001766D01*
X008760Y001735D01*
X008686Y001707D01*
X008611Y001684D01*
X008534Y001664D01*
X007826Y001664D02*
X007749Y001684D01*
X007674Y001707D01*
X007600Y001735D01*
X007528Y001766D01*
X007457Y001801D01*
X007388Y001839D01*
X007322Y001881D01*
X007257Y001926D01*
X007195Y001974D01*
X007135Y002026D01*
X007078Y002080D01*
X007024Y002137D01*
X006972Y002197D01*
X006924Y002259D01*
X006879Y002324D01*
X006838Y002391D01*
X006800Y002460D01*
X006765Y002531D01*
X006734Y002603D01*
X006706Y002677D01*
X006683Y002752D01*
X006663Y002828D01*
X006647Y002906D01*
X006635Y002984D01*
X006627Y003062D01*
X006623Y003141D01*
X006623Y003219D01*
X006627Y003298D01*
X006635Y003376D01*
X006647Y003454D01*
X006663Y003532D01*
X006683Y003608D01*
X006706Y003683D01*
X006734Y003757D01*
X006765Y003829D01*
X006800Y003900D01*
X006838Y003969D01*
X006879Y004036D01*
X006924Y004101D01*
X006972Y004163D01*
X007024Y004223D01*
X007078Y004280D01*
X007135Y004334D01*
X007195Y004386D01*
X007257Y004434D01*
X007322Y004479D01*
X007388Y004521D01*
X007457Y004559D01*
X007528Y004594D01*
X007600Y004625D01*
X007674Y004653D01*
X007749Y004676D01*
X007826Y004696D01*
X007082Y007902D02*
X004278Y007902D01*
X004574Y008422D02*
X006188Y008422D01*
X006188Y011532D01*
X005282Y012438D01*
X004574Y012438D01*
X003786Y012438D02*
X003078Y012438D01*
X002172Y011532D01*
X002172Y008422D01*
X003786Y008422D01*
X003786Y008520D02*
X003701Y008540D01*
X003617Y008563D01*
X003534Y008590D01*
X003452Y008621D01*
X003372Y008655D01*
X003293Y008694D01*
X003216Y008735D01*
X003141Y008780D01*
X003068Y008828D01*
X002997Y008880D01*
X002929Y008934D01*
X002863Y008992D01*
X002800Y009052D01*
X002740Y009115D01*
X002682Y009181D01*
X002628Y009250D01*
X002576Y009320D01*
X002528Y009393D01*
X002484Y009469D01*
X002442Y009546D01*
X002404Y009624D01*
X002370Y009705D01*
X002339Y009787D01*
X002312Y009870D01*
X002289Y009954D01*
X002270Y010039D01*
X002254Y010125D01*
X002242Y010212D01*
X002234Y010299D01*
X002230Y010386D01*
X002230Y010474D01*
X002234Y010561D01*
X002242Y010648D01*
X002254Y010735D01*
X002270Y010821D01*
X002289Y010906D01*
X002312Y010990D01*
X002339Y011073D01*
X002370Y011155D01*
X002404Y011236D01*
X002442Y011314D01*
X002484Y011391D01*
X002528Y011467D01*
X002576Y011540D01*
X002628Y011610D01*
X002682Y011679D01*
X002740Y011745D01*
X002800Y011808D01*
X002863Y011868D01*
X002929Y011926D01*
X002997Y011980D01*
X003068Y012032D01*
X003141Y012080D01*
X003216Y012125D01*
X003293Y012166D01*
X003372Y012205D01*
X003452Y012239D01*
X003534Y012270D01*
X003617Y012297D01*
X003701Y012320D01*
X003786Y012340D01*
X004574Y012340D02*
X004659Y012320D01*
X004743Y012297D01*
X004826Y012270D01*
X004908Y012239D01*
X004988Y012205D01*
X005067Y012166D01*
X005144Y012125D01*
X005219Y012080D01*
X005292Y012032D01*
X005363Y011980D01*
X005431Y011926D01*
X005497Y011868D01*
X005560Y011808D01*
X005620Y011745D01*
X005678Y011679D01*
X005732Y011610D01*
X005784Y011540D01*
X005832Y011467D01*
X005876Y011391D01*
X005918Y011314D01*
X005956Y011236D01*
X005990Y011155D01*
X006021Y011073D01*
X006048Y010990D01*
X006071Y010906D01*
X006090Y010821D01*
X006106Y010735D01*
X006118Y010648D01*
X006126Y010561D01*
X006130Y010474D01*
X006130Y010386D01*
X006126Y010299D01*
X006118Y010212D01*
X006106Y010125D01*
X006090Y010039D01*
X006071Y009954D01*
X006048Y009870D01*
X006021Y009787D01*
X005990Y009705D01*
X005956Y009624D01*
X005918Y009546D01*
X005876Y009469D01*
X005832Y009393D01*
X005784Y009320D01*
X005732Y009250D01*
X005678Y009181D01*
X005620Y009115D01*
X005560Y009052D01*
X005497Y008992D01*
X005431Y008934D01*
X005363Y008880D01*
X005292Y008828D01*
X005219Y008780D01*
X005144Y008735D01*
X005067Y008694D01*
X004988Y008655D01*
X004908Y008621D01*
X004826Y008590D01*
X004743Y008563D01*
X004659Y008540D01*
X004574Y008520D01*
X014700Y003314D02*
X015160Y003314D01*
X015160Y003467D02*
X015160Y003160D01*
X015160Y003007D02*
X015160Y002700D01*
X014700Y002700D01*
X014853Y003160D02*
X014700Y003314D01*
D14*
X006007Y006680D02*
X005466Y007074D01*
X005466Y006286D01*
X006007Y006680D01*
D15*
X006261Y006680D03*
D16*
X003078Y007856D02*
X002831Y007856D01*
X003078Y008103D01*
X003078Y008165D01*
X003016Y008226D01*
X002892Y008226D01*
X002831Y008165D01*
X002709Y008165D02*
X002647Y008226D01*
X002524Y008226D01*
X002462Y008165D01*
X002462Y007918D01*
X002524Y007856D01*
X002647Y007856D01*
X002709Y007918D01*
X010327Y002032D02*
X010327Y001785D01*
X010327Y001909D02*
X009956Y001909D01*
X010080Y001785D01*
X010018Y001664D02*
X009956Y001602D01*
X009956Y001479D01*
X010018Y001417D01*
X010265Y001417D01*
X010327Y001479D01*
X010327Y001602D01*
X010265Y001664D01*
D17*
X011680Y002680D02*
X009680Y004680D01*
X009680Y006680D01*
X011680Y008680D01*
X013680Y008680D01*
X015680Y006680D01*
X015680Y004680D01*
X013680Y002680D01*
X011680Y002680D01*
X010930Y003180D02*
X014430Y003180D01*
X014680Y003430D02*
X013680Y003680D01*
X014180Y002930D02*
X012680Y002930D01*
X012430Y004430D02*
X012432Y004461D01*
X012438Y004492D01*
X012448Y004522D01*
X012461Y004550D01*
X012478Y004577D01*
X012498Y004601D01*
X012521Y004623D01*
X012546Y004641D01*
X012574Y004656D01*
X012603Y004668D01*
X012633Y004676D01*
X012664Y004680D01*
X012696Y004680D01*
X012727Y004676D01*
X012757Y004668D01*
X012786Y004656D01*
X012814Y004641D01*
X012839Y004623D01*
X012862Y004601D01*
X012882Y004577D01*
X012899Y004550D01*
X012912Y004522D01*
X012922Y004492D01*
X012928Y004461D01*
X012930Y004430D01*
X012928Y004399D01*
X012922Y004368D01*
X012912Y004338D01*
X012899Y004310D01*
X012882Y004283D01*
X012862Y004259D01*
X012839Y004237D01*
X012814Y004219D01*
X012786Y004204D01*
X012757Y004192D01*
X012727Y004184D01*
X012696Y004180D01*
X012664Y004180D01*
X012633Y004184D01*
X012603Y004192D01*
X012574Y004204D01*
X012546Y004219D01*
X012521Y004237D01*
X012498Y004259D01*
X012478Y004283D01*
X012461Y004310D01*
X012448Y004338D01*
X012438Y004368D01*
X012432Y004399D01*
X012430Y004430D01*
X010555Y005680D02*
X010557Y005772D01*
X010563Y005864D01*
X010573Y005955D01*
X010587Y006046D01*
X010605Y006137D01*
X010626Y006226D01*
X010652Y006315D01*
X010681Y006402D01*
X010715Y006488D01*
X010751Y006572D01*
X010792Y006655D01*
X010836Y006736D01*
X010883Y006815D01*
X010934Y006892D01*
X010988Y006966D01*
X011046Y007038D01*
X011106Y007108D01*
X011169Y007174D01*
X011235Y007238D01*
X011304Y007300D01*
X011376Y007358D01*
X011450Y007413D01*
X011526Y007464D01*
X011604Y007513D01*
X011685Y007557D01*
X011767Y007599D01*
X011851Y007637D01*
X011936Y007671D01*
X012023Y007701D01*
X012112Y007728D01*
X012201Y007750D01*
X012291Y007769D01*
X012382Y007784D01*
X012473Y007795D01*
X012565Y007802D01*
X012657Y007805D01*
X012749Y007804D01*
X012841Y007799D01*
X012933Y007790D01*
X013024Y007777D01*
X013114Y007760D01*
X013204Y007739D01*
X013293Y007715D01*
X013380Y007686D01*
X013467Y007654D01*
X013551Y007618D01*
X013634Y007579D01*
X013716Y007535D01*
X013795Y007489D01*
X013873Y007439D01*
X013948Y007386D01*
X014020Y007329D01*
X014090Y007269D01*
X014158Y007207D01*
X014223Y007141D01*
X014285Y007073D01*
X014343Y007002D01*
X014399Y006929D01*
X014452Y006853D01*
X014501Y006776D01*
X014547Y006696D01*
X014589Y006614D01*
X014627Y006530D01*
X014662Y006445D01*
X014694Y006359D01*
X014721Y006271D01*
X014745Y006182D01*
X014765Y006092D01*
X014781Y006001D01*
X014793Y005910D01*
X014801Y005818D01*
X014805Y005726D01*
X014805Y005634D01*
X014801Y005542D01*
X014793Y005450D01*
X014781Y005359D01*
X014765Y005268D01*
X014745Y005178D01*
X014721Y005089D01*
X014694Y005001D01*
X014662Y004915D01*
X014627Y004830D01*
X014589Y004746D01*
X014547Y004664D01*
X014501Y004584D01*
X014452Y004507D01*
X014399Y004431D01*
X014343Y004358D01*
X014285Y004287D01*
X014223Y004219D01*
X014158Y004153D01*
X014090Y004091D01*
X014020Y004031D01*
X013948Y003974D01*
X013873Y003921D01*
X013795Y003871D01*
X013716Y003825D01*
X013634Y003781D01*
X013551Y003742D01*
X013467Y003706D01*
X013380Y003674D01*
X013293Y003645D01*
X013204Y003621D01*
X013114Y003600D01*
X013024Y003583D01*
X012933Y003570D01*
X012841Y003561D01*
X012749Y003556D01*
X012657Y003555D01*
X012565Y003558D01*
X012473Y003565D01*
X012382Y003576D01*
X012291Y003591D01*
X012201Y003610D01*
X012112Y003632D01*
X012023Y003659D01*
X011936Y003689D01*
X011851Y003723D01*
X011767Y003761D01*
X011685Y003803D01*
X011604Y003847D01*
X011526Y003896D01*
X011450Y003947D01*
X011376Y004002D01*
X011304Y004060D01*
X011235Y004122D01*
X011169Y004186D01*
X011106Y004252D01*
X011046Y004322D01*
X010988Y004394D01*
X010934Y004468D01*
X010883Y004545D01*
X010836Y004624D01*
X010792Y004705D01*
X010751Y004788D01*
X010715Y004872D01*
X010681Y004958D01*
X010652Y005045D01*
X010626Y005134D01*
X010605Y005223D01*
X010587Y005314D01*
X010573Y005405D01*
X010563Y005496D01*
X010557Y005588D01*
X010555Y005680D01*
X013680Y007680D02*
X014680Y007930D01*
X014430Y008180D02*
X010930Y008180D01*
X012680Y008430D02*
X014180Y008430D01*
M02*
