G75*
%MOIN*%
%OFA0B0*%
%FSLAX24Y24*%
%IPPOS*%
%LPD*%
%AMOC8*
5,1,8,0,0,1.08239X$1,22.5*
%
%ADD10C,0.0000*%
%ADD11C,0.0600*%
%ADD12R,0.1102X0.1496*%
%ADD13R,0.0630X0.1535*%
%ADD14OC8,0.1500*%
%ADD15R,0.0551X0.1496*%
%ADD16R,0.3543X0.1575*%
%ADD17C,0.0860*%
%ADD18R,0.0394X0.0394*%
%ADD19C,0.0515*%
%ADD20C,0.0400*%
%ADD21C,0.0240*%
%ADD22C,0.0413*%
%ADD23C,0.0356*%
%ADD24C,0.0320*%
D10*
X000680Y000680D02*
X000680Y013426D01*
X020050Y013426D01*
X020050Y000680D01*
X000680Y000680D01*
D11*
X017880Y001930D02*
X018480Y001930D01*
X018480Y002930D02*
X017880Y002930D01*
X017880Y003930D02*
X018480Y003930D01*
X018480Y004930D02*
X017880Y004930D01*
X017904Y006891D02*
X018504Y006891D01*
X018504Y007891D02*
X017904Y007891D01*
X017904Y008891D02*
X018504Y008891D01*
D12*
X007137Y006680D03*
X004223Y006680D03*
D13*
X004180Y008757D03*
X004180Y012103D03*
D14*
X004180Y004180D03*
X004180Y002180D03*
D15*
X008180Y001999D03*
X008180Y004361D03*
D16*
X012680Y002239D03*
X012680Y009113D03*
D17*
X001680Y003349D03*
X001680Y001971D03*
D18*
X010180Y009680D03*
D19*
X010180Y011430D03*
X009180Y011430D03*
X008180Y011430D03*
X007180Y011430D03*
X007180Y012430D03*
X008180Y012430D03*
X009180Y012430D03*
X010180Y012430D03*
X011180Y012430D03*
X012180Y012430D03*
X013180Y012430D03*
X014180Y012430D03*
X015180Y012430D03*
X016180Y012430D03*
X017180Y012430D03*
X018180Y012430D03*
X019180Y012430D03*
X019180Y011430D03*
X018180Y011430D03*
X017180Y011430D03*
X016180Y011430D03*
X015180Y011430D03*
X014180Y011430D03*
X013180Y011430D03*
X012180Y011430D03*
X011180Y011430D03*
D20*
X009180Y010180D02*
X005680Y010180D01*
X004180Y011680D01*
X004180Y012103D01*
X009180Y010180D02*
X010180Y009180D01*
X009680Y008680D02*
X009680Y005239D01*
X012680Y002239D01*
X008180Y001999D02*
X004361Y001999D01*
X004180Y002180D01*
X003971Y001971D01*
X002680Y001971D01*
X002680Y005137D01*
X004223Y006680D01*
X007137Y006680D02*
X007137Y008680D01*
X009680Y008680D01*
X008180Y007460D02*
X008180Y007430D01*
X008180Y004361D01*
X002680Y001971D02*
X001680Y001971D01*
D21*
X004223Y006680D02*
X004223Y007137D01*
X004180Y007180D01*
X004180Y008757D01*
X004180Y012103D02*
X004257Y012430D01*
X007180Y012430D01*
X015180Y012430D02*
X015180Y011930D01*
X016680Y011930D01*
X016680Y010180D01*
X017680Y009680D02*
X018204Y009156D01*
X018204Y008891D01*
X017680Y009680D02*
X017680Y011930D01*
X017180Y012430D01*
D22*
X016680Y010180D03*
X010180Y009180D03*
X009680Y008680D03*
D23*
X008180Y007430D03*
D24*
X010180Y009113D02*
X010180Y009180D01*
X010180Y009680D01*
X010180Y009113D02*
X012680Y009113D01*
X012680Y008930D01*
X014180Y008930D01*
X014180Y007891D01*
X018204Y007891D01*
X012680Y009113D02*
X012680Y009680D01*
M02*
