G75*
%MOIN*%
%OFA0B0*%
%FSLAX24Y24*%
%IPPOS*%
%LPD*%
%AMOC8*
5,1,8,0,0,1.08239X$1,22.5*
%
%ADD10C,0.0000*%
%ADD11R,0.0276X0.0906*%
%ADD12C,0.0640*%
%ADD13R,0.4292X0.4138*%
%ADD14R,0.0460X0.0890*%
%ADD15OC8,0.1540*%
%ADD16R,0.1142X0.1536*%
%ADD17C,0.0900*%
%ADD18C,0.0555*%
%ADD19R,0.0540X0.0290*%
D10*
X000680Y000680D02*
X000680Y013426D01*
X020050Y013426D01*
X020050Y000680D01*
X000680Y000680D01*
D11*
X013893Y004499D03*
X014286Y004499D03*
X014680Y004499D03*
X015074Y004499D03*
X015467Y004499D03*
X015467Y006861D03*
X015074Y006861D03*
X014680Y006861D03*
X014286Y006861D03*
X013893Y006861D03*
D12*
X017904Y006891D02*
X018504Y006891D01*
X018504Y007891D02*
X017904Y007891D01*
X017904Y008891D02*
X018504Y008891D01*
X018480Y004930D02*
X017880Y004930D01*
X017880Y003930D02*
X018480Y003930D01*
X018480Y002930D02*
X017880Y002930D01*
X017880Y001930D02*
X018480Y001930D01*
D13*
X010180Y004180D03*
D14*
X010180Y007460D03*
X009510Y007460D03*
X008840Y007460D03*
X010850Y007460D03*
X011520Y007460D03*
D15*
X004180Y004180D03*
X004180Y002180D03*
D16*
X004223Y006680D03*
X007137Y006680D03*
D17*
X001680Y003349D03*
X001680Y001971D03*
D18*
X007180Y011430D03*
X008180Y011430D03*
X009180Y011430D03*
X010180Y011430D03*
X011180Y011430D03*
X012180Y011430D03*
X013180Y011430D03*
X014180Y011430D03*
X015180Y011430D03*
X016180Y011430D03*
X017180Y011430D03*
X018180Y011430D03*
X019180Y011430D03*
X019180Y012430D03*
X018180Y012430D03*
X017180Y012430D03*
X016180Y012430D03*
X015180Y012430D03*
X014180Y012430D03*
X013180Y012430D03*
X012180Y012430D03*
X011180Y012430D03*
X010180Y012430D03*
X009180Y012430D03*
X008180Y012430D03*
X007180Y012430D03*
D19*
X013680Y008880D03*
X013680Y008480D03*
X014680Y008480D03*
X014680Y008880D03*
X015680Y008880D03*
X015680Y008480D03*
X016680Y008480D03*
X016680Y008880D03*
M02*
