%
M48
M72
T01C0.0236
T02C0.0276
T03C0.0315
T04C0.0394
T05C0.0400
T06C0.0550
%
T01
X8180Y7430
T02
X9680Y8680
X10180Y9180
X16680Y10180
T03
X13180Y11430
X13180Y12430
X12180Y11430
X12180Y12430
X14180Y12430
X14180Y11430
X15180Y11430
X15180Y12430
X11180Y12430
X11180Y11430
X10180Y11430
X10180Y12430
X16180Y12430
X16180Y11430
X17180Y11430
X17180Y12430
X18180Y12430
X18180Y11430
X19180Y11430
X19180Y12430
X9180Y12430
X9180Y11430
X8180Y11430
X8180Y12430
X7180Y12430
X7180Y11430
T04
X1680Y1971
X1680Y3349
T05
X18204Y8891
X18204Y7891
X18204Y6891
X18180Y1930
X18180Y2930
X18180Y3930
X18180Y4930
T06
X4180Y4180
X4180Y2180
M30
