G75*
%MOIN*%
%OFA0B0*%
%FSLAX24Y24*%
%IPPOS*%
%LPD*%
%AMOC8*
5,1,8,0,0,1.08239X$1,22.5*
%
%ADD10C,0.0000*%
%ADD11C,0.0060*%
%ADD12C,0.0100*%
%ADD13C,0.0030*%
%ADD14C,0.0080*%
%ADD15R,0.0380X0.0660*%
%ADD16C,0.0040*%
%ADD17R,0.0492X0.2441*%
%ADD18C,0.0010*%
D10*
X000680Y000680D02*
X000680Y013426D01*
X020050Y013426D01*
X020050Y000680D01*
X000680Y000680D01*
D11*
X001210Y005210D02*
X001210Y005560D01*
X001327Y005677D01*
X001444Y005677D01*
X001560Y005560D01*
X001560Y005210D01*
X001210Y005210D02*
X001911Y005210D01*
X001911Y005560D01*
X001794Y005677D01*
X001677Y005677D01*
X001560Y005560D01*
X001444Y005910D02*
X001677Y006143D01*
X001677Y006260D01*
X001677Y006493D02*
X001677Y006610D01*
X001210Y006610D01*
X001210Y006726D02*
X001210Y006493D01*
X001327Y006959D02*
X001210Y007076D01*
X001210Y007427D01*
X001327Y007659D02*
X001560Y007659D01*
X001677Y007776D01*
X001677Y008010D01*
X001560Y008126D01*
X001444Y008126D01*
X001444Y007659D01*
X001327Y007659D02*
X001210Y007776D01*
X001210Y008010D01*
X001677Y007427D02*
X001677Y007076D01*
X001560Y006959D01*
X001327Y006959D01*
X001911Y006610D02*
X002027Y006610D01*
X001677Y005910D02*
X001210Y005910D01*
X001327Y009059D02*
X001210Y009176D01*
X001210Y009409D01*
X001327Y009526D01*
X001560Y009526D01*
X001560Y009292D01*
X001794Y009526D02*
X001911Y009409D01*
X001911Y009176D01*
X001794Y009059D01*
X001327Y009059D01*
X001327Y009759D02*
X001210Y009759D01*
X001210Y009875D01*
X001327Y009875D01*
X001327Y009759D01*
X001354Y011710D02*
X001354Y012137D01*
X001567Y012351D01*
X001781Y012137D01*
X001781Y011710D01*
X001998Y011710D02*
X002212Y011924D01*
X002105Y011924D02*
X002425Y011924D01*
X002105Y011924D02*
X001998Y012030D01*
X001998Y012244D01*
X002105Y012351D01*
X002425Y012351D01*
X002425Y011710D01*
X001781Y012030D02*
X001354Y012030D01*
X003286Y012137D02*
X003500Y012137D01*
X003393Y012244D02*
X003393Y011817D01*
X003286Y011710D01*
X003717Y011924D02*
X004144Y011924D01*
X004144Y012030D02*
X004037Y012137D01*
X003824Y012137D01*
X003717Y012030D01*
X003717Y011924D01*
X003824Y011710D02*
X004037Y011710D01*
X004144Y011817D01*
X004144Y012030D01*
X004360Y012137D02*
X004360Y011603D01*
X004467Y011496D01*
X004574Y011496D01*
X004791Y011351D02*
X004684Y011244D01*
X004684Y011030D01*
X004791Y010924D01*
X005111Y010924D01*
X005111Y010710D02*
X005111Y011351D01*
X004791Y011351D01*
X004898Y011710D02*
X004791Y011817D01*
X004791Y012030D01*
X004898Y012137D01*
X005112Y012137D01*
X005218Y012030D01*
X005218Y011817D01*
X005112Y011710D01*
X004898Y011710D01*
X005328Y011244D02*
X005435Y011351D01*
X005649Y011351D01*
X005755Y011244D01*
X005755Y010817D01*
X005649Y010710D01*
X005435Y010710D01*
X005328Y010817D01*
X005973Y010817D02*
X005973Y011351D01*
X006400Y011351D02*
X006400Y010817D01*
X006293Y010710D01*
X006080Y010710D01*
X005973Y010817D01*
X005755Y011710D02*
X005755Y012137D01*
X005755Y011924D02*
X005542Y012137D01*
X005435Y012137D01*
X005973Y012030D02*
X006080Y011924D01*
X006400Y011924D01*
X006400Y011710D02*
X006400Y012351D01*
X006080Y012351D01*
X005973Y012244D01*
X005973Y012030D01*
X004360Y012351D02*
X004360Y012457D01*
D12*
X013696Y006271D02*
X015664Y006271D01*
X015664Y005089D01*
X013696Y005089D01*
X013696Y005286D01*
X013735Y005288D01*
X013773Y005294D01*
X013810Y005303D01*
X013847Y005316D01*
X013882Y005333D01*
X013915Y005352D01*
X013946Y005375D01*
X013975Y005401D01*
X014001Y005430D01*
X014024Y005461D01*
X014043Y005494D01*
X014060Y005529D01*
X014073Y005566D01*
X014082Y005603D01*
X014088Y005641D01*
X014090Y005680D01*
X014088Y005719D01*
X014082Y005757D01*
X014073Y005794D01*
X014060Y005831D01*
X014043Y005866D01*
X014024Y005899D01*
X014001Y005930D01*
X013975Y005959D01*
X013946Y005985D01*
X013915Y006008D01*
X013882Y006027D01*
X013847Y006044D01*
X013810Y006057D01*
X013773Y006066D01*
X013735Y006072D01*
X013696Y006074D01*
X013696Y006271D01*
D13*
X015876Y006176D02*
X016166Y006176D01*
X016070Y006272D01*
X016166Y006369D01*
X015876Y006369D01*
X015924Y006470D02*
X015876Y006519D01*
X015876Y006615D01*
X015924Y006664D01*
X016021Y006765D02*
X016021Y006958D01*
X016021Y007059D02*
X016021Y007253D01*
X016070Y007253D02*
X015876Y007253D01*
X015876Y007354D02*
X016166Y007354D01*
X016070Y007253D02*
X016166Y007156D01*
X016070Y007059D01*
X015876Y007059D01*
X016118Y006664D02*
X016166Y006615D01*
X016166Y006519D01*
X016118Y006470D01*
X015924Y006470D01*
X015924Y006074D02*
X015876Y006026D01*
X015876Y005929D01*
X015924Y005881D01*
X015973Y005881D01*
X016021Y005929D01*
X016021Y006026D01*
X015973Y006074D01*
X015924Y006074D01*
X016021Y006026D02*
X016070Y006074D01*
X016118Y006074D01*
X016166Y006026D01*
X016166Y005929D01*
X016118Y005881D01*
X016070Y005881D01*
X016021Y005929D01*
X016021Y005780D02*
X016021Y005586D01*
X016166Y005731D01*
X015876Y005731D01*
X015924Y005485D02*
X016118Y005485D01*
X016166Y005437D01*
X016166Y005340D01*
X016118Y005292D01*
X016070Y005292D01*
X016021Y005340D01*
X016021Y005485D01*
X015924Y005485D02*
X015876Y005437D01*
X015876Y005340D01*
X015924Y005292D01*
X015876Y005190D02*
X015876Y004997D01*
X015876Y005094D02*
X016166Y005094D01*
X016070Y004997D01*
X016070Y004896D02*
X016021Y004847D01*
X016021Y004702D01*
X015876Y004702D02*
X015876Y004847D01*
X015924Y004896D01*
X015973Y004896D01*
X016021Y004847D01*
X016070Y004896D02*
X016118Y004896D01*
X016166Y004847D01*
X016166Y004702D01*
X015876Y004702D01*
X015876Y004601D02*
X015876Y004408D01*
X016166Y004408D01*
X016021Y007354D02*
X016021Y007548D01*
X016166Y007548D02*
X015876Y007548D01*
D14*
X015980Y008255D02*
X015997Y008257D01*
X016014Y008261D01*
X016030Y008268D01*
X016044Y008278D01*
X016057Y008291D01*
X016067Y008305D01*
X016074Y008321D01*
X016078Y008338D01*
X016080Y008355D01*
X016080Y009005D01*
X016078Y009022D01*
X016074Y009039D01*
X016067Y009055D01*
X016057Y009069D01*
X016044Y009082D01*
X016030Y009092D01*
X016014Y009099D01*
X015997Y009103D01*
X015980Y009105D01*
X016280Y009005D02*
X016280Y008355D01*
X016282Y008338D01*
X016286Y008321D01*
X016293Y008305D01*
X016303Y008291D01*
X016316Y008278D01*
X016330Y008268D01*
X016346Y008261D01*
X016363Y008257D01*
X016380Y008255D01*
X016980Y008255D02*
X016997Y008257D01*
X017014Y008261D01*
X017030Y008268D01*
X017044Y008278D01*
X017057Y008291D01*
X017067Y008305D01*
X017074Y008321D01*
X017078Y008338D01*
X017080Y008355D01*
X017080Y009005D01*
X017078Y009022D01*
X017074Y009039D01*
X017067Y009055D01*
X017057Y009069D01*
X017044Y009082D01*
X017030Y009092D01*
X017014Y009099D01*
X016997Y009103D01*
X016980Y009105D01*
X016380Y009105D02*
X016363Y009103D01*
X016346Y009099D01*
X016330Y009092D01*
X016316Y009082D01*
X016303Y009069D01*
X016293Y009055D01*
X016286Y009039D01*
X016282Y009022D01*
X016280Y009005D01*
X015380Y009105D02*
X015363Y009103D01*
X015346Y009099D01*
X015330Y009092D01*
X015316Y009082D01*
X015303Y009069D01*
X015293Y009055D01*
X015286Y009039D01*
X015282Y009022D01*
X015280Y009005D01*
X015280Y008355D01*
X015282Y008338D01*
X015286Y008321D01*
X015293Y008305D01*
X015303Y008291D01*
X015316Y008278D01*
X015330Y008268D01*
X015346Y008261D01*
X015363Y008257D01*
X015380Y008255D01*
X015080Y008355D02*
X015080Y009005D01*
X015078Y009022D01*
X015074Y009039D01*
X015067Y009055D01*
X015057Y009069D01*
X015044Y009082D01*
X015030Y009092D01*
X015014Y009099D01*
X014997Y009103D01*
X014980Y009105D01*
X014380Y009105D02*
X014363Y009103D01*
X014346Y009099D01*
X014330Y009092D01*
X014316Y009082D01*
X014303Y009069D01*
X014293Y009055D01*
X014286Y009039D01*
X014282Y009022D01*
X014280Y009005D01*
X014280Y008355D01*
X014282Y008338D01*
X014286Y008321D01*
X014293Y008305D01*
X014303Y008291D01*
X014316Y008278D01*
X014330Y008268D01*
X014346Y008261D01*
X014363Y008257D01*
X014380Y008255D01*
X014080Y008355D02*
X014080Y009005D01*
X014078Y009022D01*
X014074Y009039D01*
X014067Y009055D01*
X014057Y009069D01*
X014044Y009082D01*
X014030Y009092D01*
X014014Y009099D01*
X013997Y009103D01*
X013980Y009105D01*
X013380Y009105D02*
X013363Y009103D01*
X013346Y009099D01*
X013330Y009092D01*
X013316Y009082D01*
X013303Y009069D01*
X013293Y009055D01*
X013286Y009039D01*
X013282Y009022D01*
X013280Y009005D01*
X013280Y008355D01*
X013282Y008338D01*
X013286Y008321D01*
X013293Y008305D01*
X013303Y008291D01*
X013316Y008278D01*
X013330Y008268D01*
X013346Y008261D01*
X013363Y008257D01*
X013380Y008255D01*
X013980Y008255D02*
X013997Y008257D01*
X014014Y008261D01*
X014030Y008268D01*
X014044Y008278D01*
X014057Y008291D01*
X014067Y008305D01*
X014074Y008321D01*
X014078Y008338D01*
X014080Y008355D01*
X014980Y008255D02*
X014997Y008257D01*
X015014Y008261D01*
X015030Y008268D01*
X015044Y008278D01*
X015057Y008291D01*
X015067Y008305D01*
X015074Y008321D01*
X015078Y008338D01*
X015080Y008355D01*
X012186Y006314D02*
X008174Y006314D01*
X006007Y006680D02*
X005466Y006286D01*
X005466Y007074D01*
X006007Y006680D01*
D15*
X008840Y006610D03*
X009510Y006610D03*
X010180Y006610D03*
X010850Y006610D03*
X011520Y006610D03*
D16*
X007082Y005458D02*
X004278Y005458D01*
X004278Y007902D02*
X007082Y007902D01*
X007022Y008022D02*
X006792Y008022D01*
X006715Y008099D01*
X006715Y008406D01*
X006792Y008483D01*
X007022Y008483D01*
X007022Y008022D01*
X006561Y008022D02*
X006254Y008022D01*
X006408Y008022D02*
X006408Y008483D01*
X006561Y008329D01*
D17*
X006261Y006680D03*
D18*
X013685Y007710D02*
X013710Y007685D01*
X013685Y007710D02*
X013685Y007760D01*
X013710Y007785D01*
X013735Y007785D01*
X013760Y007760D01*
X013760Y007710D01*
X013785Y007685D01*
X013810Y007685D01*
X013835Y007710D01*
X013835Y007760D01*
X013810Y007785D01*
X013835Y007882D02*
X013835Y007932D01*
X013835Y007907D02*
X013710Y007907D01*
X013685Y007882D01*
X013685Y007857D01*
X013710Y007832D01*
X013685Y007980D02*
X013685Y008080D01*
X013685Y008030D02*
X013835Y008030D01*
X013785Y007980D01*
X014685Y007980D02*
X014785Y008080D01*
X014810Y008080D01*
X014835Y008055D01*
X014835Y008005D01*
X014810Y007980D01*
X014835Y007932D02*
X014835Y007882D01*
X014835Y007907D02*
X014710Y007907D01*
X014685Y007882D01*
X014685Y007857D01*
X014710Y007832D01*
X014710Y007785D02*
X014685Y007760D01*
X014685Y007710D01*
X014710Y007685D01*
X014760Y007710D02*
X014760Y007760D01*
X014735Y007785D01*
X014710Y007785D01*
X014760Y007710D02*
X014785Y007685D01*
X014810Y007685D01*
X014835Y007710D01*
X014835Y007760D01*
X014810Y007785D01*
X014685Y007980D02*
X014685Y008080D01*
X015685Y008055D02*
X015685Y008005D01*
X015710Y007980D01*
X015760Y008030D02*
X015760Y008055D01*
X015735Y008080D01*
X015710Y008080D01*
X015685Y008055D01*
X015760Y008055D02*
X015785Y008080D01*
X015810Y008080D01*
X015835Y008055D01*
X015835Y008005D01*
X015810Y007980D01*
X015835Y007932D02*
X015835Y007882D01*
X015835Y007907D02*
X015710Y007907D01*
X015685Y007882D01*
X015685Y007857D01*
X015710Y007832D01*
X015710Y007785D02*
X015685Y007760D01*
X015685Y007710D01*
X015710Y007685D01*
X015760Y007710D02*
X015760Y007760D01*
X015735Y007785D01*
X015710Y007785D01*
X015760Y007710D02*
X015785Y007685D01*
X015810Y007685D01*
X015835Y007710D01*
X015835Y007760D01*
X015810Y007785D01*
X016685Y007760D02*
X016685Y007710D01*
X016710Y007685D01*
X016760Y007710D02*
X016760Y007760D01*
X016735Y007785D01*
X016710Y007785D01*
X016685Y007760D01*
X016710Y007832D02*
X016685Y007857D01*
X016685Y007882D01*
X016710Y007907D01*
X016835Y007907D01*
X016835Y007882D02*
X016835Y007932D01*
X016760Y007980D02*
X016760Y008080D01*
X016685Y008055D02*
X016835Y008055D01*
X016760Y007980D01*
X016810Y007785D02*
X016835Y007760D01*
X016835Y007710D01*
X016810Y007685D01*
X016785Y007685D01*
X016760Y007710D01*
M02*
