G75*
%MOIN*%
%OFA0B0*%
%FSLAX24Y24*%
%IPPOS*%
%LPD*%
%AMOC8*
5,1,8,0,0,1.08239X$1,22.5*
%
%ADD10C,0.0000*%
%ADD11R,0.0866X0.0236*%
%ADD12C,0.0600*%
%ADD13R,0.4252X0.4098*%
%ADD14R,0.0420X0.0850*%
%ADD15R,0.1496X0.1102*%
%ADD16R,0.1535X0.0630*%
%ADD17OC8,0.1500*%
%ADD18R,0.1496X0.0551*%
%ADD19R,0.1575X0.3543*%
%ADD20R,0.1102X0.1496*%
%ADD21C,0.0860*%
%ADD22R,0.0394X0.0394*%
%ADD23C,0.0515*%
%ADD24C,0.0080*%
%ADD25R,0.0500X0.0250*%
%ADD26C,0.0240*%
%ADD27C,0.0500*%
%ADD28C,0.0400*%
%ADD29C,0.0320*%
%ADD30C,0.0591*%
%ADD31C,0.0436*%
%ADD32C,0.0160*%
D10*
X000680Y000680D02*
X000680Y018176D01*
X024550Y018176D01*
X024550Y000680D01*
X000680Y000680D01*
D11*
X018499Y004393D03*
X018499Y004786D03*
X018499Y005180D03*
X018499Y005574D03*
X018499Y005967D03*
X020861Y005967D03*
X020861Y005574D03*
X020861Y005180D03*
X020861Y004786D03*
X020861Y004393D03*
D12*
X021904Y004141D02*
X022504Y004141D01*
X022504Y003141D02*
X021904Y003141D01*
X021904Y002141D02*
X022504Y002141D01*
X019930Y001880D02*
X019930Y002480D01*
X018930Y002480D02*
X018930Y001880D01*
X017930Y001880D02*
X017930Y002480D01*
X016930Y002480D02*
X016930Y001880D01*
D13*
X013680Y004180D03*
D14*
X013680Y007460D03*
X014350Y007460D03*
X015020Y007460D03*
X013010Y007460D03*
X012340Y007460D03*
D15*
X017680Y007723D03*
X017680Y010637D03*
D16*
X015353Y010680D03*
X012007Y010680D03*
D17*
X004680Y004180D03*
X004680Y002180D03*
D18*
X007499Y002680D03*
X009861Y002680D03*
D19*
X009113Y010430D03*
X002239Y010430D03*
D20*
X007223Y006180D03*
X010137Y006180D03*
D21*
X002180Y003349D03*
X002180Y001971D03*
D22*
X008680Y012680D03*
D23*
X011680Y014180D03*
X011680Y015180D03*
X012680Y015180D03*
X013680Y015180D03*
X014680Y015180D03*
X015680Y015180D03*
X016680Y015180D03*
X017680Y015180D03*
X018680Y015180D03*
X019680Y015180D03*
X020680Y015180D03*
X021680Y015180D03*
X022680Y015180D03*
X023680Y015180D03*
X023680Y014180D03*
X022680Y014180D03*
X021680Y014180D03*
X020680Y014180D03*
X019680Y014180D03*
X018680Y014180D03*
X017680Y014180D03*
X016680Y014180D03*
X015680Y014180D03*
X014680Y014180D03*
X013680Y014180D03*
X012680Y014180D03*
D24*
X019430Y009830D02*
X019430Y009530D01*
X019930Y010530D02*
X019930Y010830D01*
X020680Y009830D02*
X020680Y009530D01*
X021180Y010530D02*
X021180Y010830D01*
D25*
X021180Y010880D03*
X021180Y010480D03*
X020680Y009880D03*
X020680Y009480D03*
X019930Y010480D03*
X019930Y010880D03*
X019430Y009880D03*
X019430Y009480D03*
D26*
X017680Y006180D02*
X017893Y005967D01*
X018499Y005967D01*
X018499Y005574D02*
X016680Y005574D01*
X016680Y002180D01*
X016930Y002180D01*
X017930Y002180D02*
X017930Y002680D01*
X017180Y003430D01*
X017180Y005180D01*
X018499Y005180D01*
X018499Y004786D02*
X017680Y004786D01*
X017680Y003680D01*
X018930Y002430D01*
X018930Y002180D01*
X019930Y002180D02*
X019930Y002430D01*
X018499Y003861D01*
X018499Y004393D01*
X020861Y004393D02*
X020930Y004393D01*
X020930Y003680D01*
X022180Y004164D02*
X022204Y004141D01*
X022180Y004164D02*
X022180Y014680D01*
X021680Y015180D01*
X015020Y007460D02*
X015020Y006680D01*
X010637Y006680D01*
X010137Y006180D01*
X012340Y003680D02*
X013680Y003680D01*
X010137Y002723D02*
X009904Y002723D01*
X009861Y002680D01*
X009113Y010430D02*
X008680Y010430D01*
X008680Y012680D01*
D27*
X007223Y006180D02*
X004680Y004180D01*
X002180Y004180D01*
X002180Y003349D01*
X007499Y002680D02*
X008499Y001680D01*
X010680Y001680D01*
X013680Y001680D01*
X013680Y003680D01*
X013680Y004180D01*
D28*
X011680Y008430D02*
X011680Y010680D01*
X012180Y010680D01*
X010180Y012680D01*
X010180Y015180D01*
X011680Y015180D01*
X012680Y015180D01*
X015353Y010680D02*
X017680Y010680D01*
X017680Y010637D01*
X020930Y003680D02*
X021469Y003141D01*
X022204Y003141D01*
D29*
X017680Y007723D02*
X016723Y008680D01*
X014350Y008680D01*
X013850Y009180D01*
X013680Y009180D01*
X014350Y008680D02*
X014350Y007460D01*
X013680Y007460D02*
X013680Y008430D01*
X013010Y007460D02*
X013010Y009677D01*
X012007Y010680D01*
X011680Y010680D01*
X009680Y010680D01*
X009613Y010747D01*
X009113Y010430D01*
X005680Y009180D02*
X004430Y010430D01*
X002239Y010430D01*
X010137Y006180D02*
X010137Y002723D01*
X010180Y002680D01*
X007499Y002680D02*
X005180Y002680D01*
X004680Y002180D01*
X011680Y007680D02*
X012120Y007680D01*
X012340Y007460D01*
X017680Y010637D02*
X017680Y011680D01*
D30*
X017680Y011680D03*
X013680Y009180D03*
X013680Y008430D03*
X011680Y008430D03*
X011680Y007680D03*
X005680Y009180D03*
X017680Y006180D03*
X020930Y003680D03*
D31*
X010680Y001680D03*
D32*
X019430Y005430D02*
X019430Y009480D01*
X019430Y009880D02*
X019430Y010930D01*
X018680Y011680D01*
X018680Y012930D01*
X017680Y013930D01*
X017680Y014180D01*
X018680Y014180D02*
X018680Y013430D01*
X019930Y012180D01*
X019930Y010880D01*
X019930Y010480D02*
X019930Y005430D01*
X020180Y005180D01*
X020861Y005180D01*
X020861Y005574D02*
X020286Y005574D01*
X020180Y005680D01*
X020180Y006180D01*
X020680Y006680D01*
X020680Y009480D01*
X020680Y009880D02*
X020430Y010180D01*
X020430Y012430D01*
X019180Y013680D01*
X019180Y014680D01*
X018680Y015180D01*
X019680Y015180D02*
X020180Y014680D01*
X020180Y013680D01*
X020680Y013180D01*
X020680Y012680D01*
X021180Y012180D01*
X021180Y010880D01*
X021180Y010480D02*
X021180Y006680D01*
X020861Y006111D01*
X020861Y005967D01*
X020074Y004786D02*
X019430Y005430D01*
X020074Y004786D02*
X020861Y004786D01*
M02*
