G75*
%MOIN*%
%OFA0B0*%
%FSLAX24Y24*%
%IPPOS*%
%LPD*%
%AMOC8*
5,1,8,0,0,1.08239X$1,22.5*
%
%ADD10C,0.0080*%
%ADD11C,0.0070*%
%ADD12C,0.0060*%
%ADD13C,0.0050*%
%ADD14R,0.0380X0.0660*%
%ADD15C,0.0040*%
%ADD16R,0.2441X0.0492*%
%ADD17C,0.0120*%
%ADD18R,0.0492X0.2441*%
D10*
X008466Y005786D02*
X008466Y006574D01*
X009007Y006180D01*
X008466Y005786D01*
X011674Y006314D02*
X015686Y006314D01*
X017680Y008853D02*
X018074Y009394D01*
X017286Y009394D01*
X017680Y008853D01*
X019030Y009355D02*
X019030Y010005D01*
X019032Y010022D01*
X019036Y010039D01*
X019043Y010055D01*
X019053Y010069D01*
X019066Y010082D01*
X019080Y010092D01*
X019096Y010099D01*
X019113Y010103D01*
X019130Y010105D01*
X019530Y010355D02*
X019530Y011005D01*
X019532Y011022D01*
X019536Y011039D01*
X019543Y011055D01*
X019553Y011069D01*
X019566Y011082D01*
X019580Y011092D01*
X019596Y011099D01*
X019613Y011103D01*
X019630Y011105D01*
X020230Y011105D02*
X020247Y011103D01*
X020264Y011099D01*
X020280Y011092D01*
X020294Y011082D01*
X020307Y011069D01*
X020317Y011055D01*
X020324Y011039D01*
X020328Y011022D01*
X020330Y011005D01*
X020330Y010355D01*
X020328Y010338D01*
X020324Y010321D01*
X020317Y010305D01*
X020307Y010291D01*
X020294Y010278D01*
X020280Y010268D01*
X020264Y010261D01*
X020247Y010257D01*
X020230Y010255D01*
X020280Y010005D02*
X020280Y009355D01*
X020282Y009338D01*
X020286Y009321D01*
X020293Y009305D01*
X020303Y009291D01*
X020316Y009278D01*
X020330Y009268D01*
X020346Y009261D01*
X020363Y009257D01*
X020380Y009255D01*
X019830Y009355D02*
X019830Y010005D01*
X019828Y010022D01*
X019824Y010039D01*
X019817Y010055D01*
X019807Y010069D01*
X019794Y010082D01*
X019780Y010092D01*
X019764Y010099D01*
X019747Y010103D01*
X019730Y010105D01*
X019630Y010255D02*
X019613Y010257D01*
X019596Y010261D01*
X019580Y010268D01*
X019566Y010278D01*
X019553Y010291D01*
X019543Y010305D01*
X019536Y010321D01*
X019532Y010338D01*
X019530Y010355D01*
X020280Y010005D02*
X020282Y010022D01*
X020286Y010039D01*
X020293Y010055D01*
X020303Y010069D01*
X020316Y010082D01*
X020330Y010092D01*
X020346Y010099D01*
X020363Y010103D01*
X020380Y010105D01*
X020780Y010355D02*
X020780Y011005D01*
X020782Y011022D01*
X020786Y011039D01*
X020793Y011055D01*
X020803Y011069D01*
X020816Y011082D01*
X020830Y011092D01*
X020846Y011099D01*
X020863Y011103D01*
X020880Y011105D01*
X021480Y011105D02*
X021497Y011103D01*
X021514Y011099D01*
X021530Y011092D01*
X021544Y011082D01*
X021557Y011069D01*
X021567Y011055D01*
X021574Y011039D01*
X021578Y011022D01*
X021580Y011005D01*
X021580Y010355D01*
X021578Y010338D01*
X021574Y010321D01*
X021567Y010305D01*
X021557Y010291D01*
X021544Y010278D01*
X021530Y010268D01*
X021514Y010261D01*
X021497Y010257D01*
X021480Y010255D01*
X021080Y010005D02*
X021080Y009355D01*
X021078Y009338D01*
X021074Y009321D01*
X021067Y009305D01*
X021057Y009291D01*
X021044Y009278D01*
X021030Y009268D01*
X021014Y009261D01*
X020997Y009257D01*
X020980Y009255D01*
X021080Y010005D02*
X021078Y010022D01*
X021074Y010039D01*
X021067Y010055D01*
X021057Y010069D01*
X021044Y010082D01*
X021030Y010092D01*
X021014Y010099D01*
X020997Y010103D01*
X020980Y010105D01*
X020880Y010255D02*
X020863Y010257D01*
X020846Y010261D01*
X020830Y010268D01*
X020816Y010278D01*
X020803Y010291D01*
X020793Y010305D01*
X020786Y010321D01*
X020782Y010338D01*
X020780Y010355D01*
X019830Y009355D02*
X019828Y009338D01*
X019824Y009321D01*
X019817Y009305D01*
X019807Y009291D01*
X019794Y009278D01*
X019780Y009268D01*
X019764Y009261D01*
X019747Y009257D01*
X019730Y009255D01*
X019130Y009255D02*
X019113Y009257D01*
X019096Y009261D01*
X019080Y009268D01*
X019066Y009278D01*
X019053Y009291D01*
X019043Y009305D01*
X019036Y009321D01*
X019032Y009338D01*
X019030Y009355D01*
X008933Y016720D02*
X008933Y017334D01*
X008626Y017641D01*
X008319Y017334D01*
X008319Y016720D01*
X008012Y016720D02*
X007705Y017027D01*
X007859Y017027D02*
X007398Y017027D01*
X007398Y016720D02*
X007398Y017641D01*
X007859Y017641D01*
X008012Y017487D01*
X008012Y017180D01*
X007859Y017027D01*
X008319Y017180D02*
X008933Y017180D01*
X006170Y017334D02*
X005864Y017334D01*
X006017Y017487D02*
X006017Y016873D01*
X006170Y016720D01*
X005557Y017027D02*
X004943Y017027D01*
X004943Y017180D02*
X004943Y016873D01*
X005096Y016720D01*
X005403Y016720D01*
X005557Y017027D02*
X005557Y017180D01*
X005403Y017334D01*
X005096Y017334D01*
X004943Y017180D01*
X004636Y017334D02*
X004636Y016567D01*
X004482Y016413D01*
X004329Y016413D01*
X004022Y016873D02*
X004022Y017180D01*
X003869Y017334D01*
X003562Y017334D01*
X003408Y017180D01*
X003408Y016873D01*
X003562Y016720D01*
X003869Y016720D01*
X004022Y016873D01*
X004636Y017641D02*
X004636Y017794D01*
X003101Y017334D02*
X002948Y017334D01*
X002641Y017027D01*
X002641Y016720D02*
X002641Y017334D01*
X002334Y017487D02*
X002334Y017180D01*
X002180Y017027D01*
X001720Y017027D01*
X001720Y016720D02*
X001720Y017641D01*
X002180Y017641D01*
X002334Y017487D01*
X002334Y014641D02*
X002334Y013873D01*
X002180Y013720D01*
X001873Y013720D01*
X001720Y013873D01*
X001720Y014641D01*
X002641Y014487D02*
X002641Y013873D01*
X002794Y013720D01*
X003101Y013720D01*
X003255Y013873D01*
X003562Y013720D02*
X003562Y014641D01*
X004022Y014641D01*
X004175Y014487D01*
X004175Y014180D01*
X004022Y014027D01*
X003562Y014027D01*
X003255Y014487D02*
X003101Y014641D01*
X002794Y014641D01*
X002641Y014487D01*
D11*
X002638Y015215D02*
X002375Y015215D01*
X002243Y015347D01*
X002375Y015610D02*
X002638Y015610D01*
X002770Y015479D01*
X002770Y015347D01*
X002638Y015215D01*
X003035Y015215D02*
X003298Y015215D01*
X003167Y015215D02*
X003167Y016006D01*
X003298Y016006D02*
X003035Y016006D01*
X002770Y015874D02*
X002638Y016006D01*
X002375Y016006D01*
X002243Y015874D01*
X002243Y015742D01*
X002375Y015610D01*
X001979Y015215D02*
X001715Y015215D01*
X001847Y015215D02*
X001847Y016006D01*
X001715Y016006D02*
X001979Y016006D01*
X003563Y016006D02*
X003563Y015215D01*
X004090Y015215D02*
X004090Y016006D01*
X003826Y015742D01*
X003563Y016006D01*
X005146Y015874D02*
X005146Y015742D01*
X005278Y015610D01*
X005542Y015610D01*
X005674Y015479D01*
X005674Y015347D01*
X005542Y015215D01*
X005278Y015215D01*
X005146Y015347D01*
X005146Y015874D02*
X005278Y016006D01*
X005542Y016006D01*
X005674Y015874D01*
X005938Y016006D02*
X006202Y016006D01*
X006070Y016006D02*
X006070Y015215D01*
X005938Y015215D02*
X006202Y015215D01*
X006466Y015347D02*
X006598Y015215D01*
X006862Y015215D01*
X006993Y015347D01*
X006466Y015347D02*
X006466Y015874D01*
X006598Y016006D01*
X006862Y016006D01*
X006993Y015874D01*
X008050Y015874D02*
X008182Y016006D01*
X008445Y016006D01*
X008577Y015874D01*
X008577Y015742D01*
X008050Y015215D01*
X008577Y015215D01*
X008842Y015347D02*
X009369Y015874D01*
X009369Y015347D01*
X009237Y015215D01*
X008974Y015215D01*
X008842Y015347D01*
X008842Y015874D01*
X008974Y016006D01*
X009237Y016006D01*
X009369Y015874D01*
X009634Y015742D02*
X009897Y016006D01*
X009897Y015215D01*
X009634Y015215D02*
X010161Y015215D01*
X010426Y015610D02*
X010953Y015610D01*
X010821Y015215D02*
X010821Y016006D01*
X010426Y015610D01*
D12*
X005659Y006661D02*
X005426Y006661D01*
X005309Y006544D01*
X005309Y006077D01*
X005426Y005960D01*
X005659Y005960D01*
X005776Y006077D01*
X005776Y006310D01*
X005542Y006310D01*
X005776Y006544D02*
X005659Y006661D01*
X006009Y006077D02*
X006125Y006077D01*
X006125Y005960D01*
X006009Y005960D01*
X006009Y006077D01*
X005430Y004930D02*
X005180Y004930D01*
X005430Y004930D02*
X005430Y004680D01*
X005430Y003680D02*
X005430Y003430D01*
X005180Y003430D01*
X005180Y002930D02*
X005430Y002930D01*
X005430Y002680D01*
X004180Y002930D02*
X003930Y002930D01*
X003930Y002680D01*
X003930Y003430D02*
X003930Y003680D01*
X003930Y003430D02*
X004180Y003430D01*
X003930Y004680D02*
X003930Y004930D01*
X004180Y004930D01*
X004260Y005960D02*
X004026Y005960D01*
X003909Y006077D01*
X003909Y006310D01*
X004026Y006427D01*
X004260Y006427D01*
X004376Y006310D01*
X004376Y006194D01*
X003909Y006194D01*
X003677Y005960D02*
X003326Y005960D01*
X003209Y006077D01*
X003209Y006310D01*
X003326Y006427D01*
X003677Y006427D01*
X002860Y006427D02*
X002860Y005960D01*
X002976Y005960D02*
X002743Y005960D01*
X002743Y006427D02*
X002860Y006427D01*
X002860Y006661D02*
X002860Y006777D01*
X002510Y006427D02*
X002393Y006427D01*
X002160Y006194D01*
X001927Y006194D02*
X001810Y006310D01*
X001460Y006310D01*
X001460Y005960D02*
X001810Y005960D01*
X001927Y006077D01*
X001927Y006194D01*
X001810Y006310D02*
X001927Y006427D01*
X001927Y006544D01*
X001810Y006661D01*
X001460Y006661D01*
X001460Y005960D01*
X002160Y005960D02*
X002160Y006427D01*
X003930Y001680D02*
X003930Y001430D01*
X004180Y001430D01*
X005180Y001430D02*
X005430Y001430D01*
X005430Y001680D01*
X016430Y001930D02*
X016430Y002430D01*
X016680Y002680D01*
X017180Y002680D01*
X017430Y002430D01*
X017680Y002680D01*
X018180Y002680D01*
X018430Y002430D01*
X018680Y002680D01*
X019180Y002680D01*
X019430Y002430D01*
X019680Y002680D01*
X020180Y002680D01*
X020430Y002430D01*
X020430Y001930D01*
X020180Y001680D01*
X019680Y001680D01*
X019430Y001930D01*
X019180Y001680D01*
X018680Y001680D01*
X018430Y001930D01*
X018180Y001680D01*
X017680Y001680D01*
X017430Y001930D01*
X017180Y001680D01*
X016680Y001680D01*
X016430Y001930D01*
X021704Y001891D02*
X021704Y002391D01*
X021954Y002641D01*
X021704Y002891D01*
X021704Y003391D01*
X021954Y003641D01*
X021704Y003891D01*
X021704Y004391D01*
X021954Y004641D01*
X022454Y004641D01*
X022704Y004391D01*
X022704Y003891D01*
X022454Y003641D01*
X022704Y003391D01*
X022704Y002891D01*
X022454Y002641D01*
X022704Y002391D01*
X022704Y001891D01*
X022454Y001641D01*
X021954Y001641D01*
X021704Y001891D01*
D13*
X001314Y001263D02*
X000763Y001263D01*
X000763Y004019D01*
X001314Y004019D01*
X001314Y001263D01*
X003519Y001263D01*
X003519Y004019D01*
X001314Y004019D01*
X011180Y013680D02*
X011180Y014680D01*
X024180Y014680D01*
X024180Y013680D01*
X023180Y013680D01*
X023180Y015680D01*
X022180Y015680D01*
X022180Y013680D01*
X021180Y013680D01*
X021180Y015680D01*
X020180Y015680D01*
X020180Y013680D01*
X019180Y013680D01*
X019180Y015680D01*
X018180Y015680D01*
X018180Y013680D01*
X017180Y013680D01*
X017180Y015680D01*
X016180Y015680D01*
X016180Y013680D01*
X015180Y013680D01*
X015180Y015680D01*
X014180Y015680D01*
X014180Y013680D01*
X013180Y013680D01*
X013180Y015680D01*
X012180Y015680D01*
X012180Y013680D01*
X011180Y013680D01*
X012180Y013680D02*
X013180Y013680D01*
X014180Y013680D02*
X015180Y013680D01*
X016180Y013680D02*
X017180Y013680D01*
X018180Y013680D02*
X019180Y013680D01*
X020180Y013680D02*
X021180Y013680D01*
X022180Y013680D02*
X023180Y013680D01*
X024180Y014680D02*
X024180Y015680D01*
X023180Y015680D01*
X022180Y015680D02*
X021180Y015680D01*
X020180Y015680D02*
X019180Y015680D01*
X018180Y015680D02*
X017180Y015680D01*
X016180Y015680D02*
X015180Y015680D01*
X014180Y015680D02*
X013180Y015680D01*
X012180Y015680D02*
X011180Y015680D01*
X011180Y014680D01*
X022429Y005005D02*
X022429Y004705D01*
X022429Y004855D02*
X021978Y004855D01*
X022128Y004705D01*
X020595Y002405D02*
X020595Y001955D01*
X020445Y001955D02*
X020745Y001955D01*
X020445Y002255D02*
X020595Y002405D01*
X016195Y002180D02*
X015895Y002180D01*
X016120Y002405D01*
X016120Y001955D01*
D14*
X015020Y006610D03*
X014350Y006610D03*
X013680Y006610D03*
X013010Y006610D03*
X012340Y006610D03*
D15*
X010082Y007402D02*
X007278Y007402D01*
X007278Y004958D02*
X010082Y004958D01*
X009389Y004294D02*
X010294Y003389D01*
X010294Y003034D01*
X010294Y002326D02*
X010294Y001971D01*
X009389Y001066D01*
X007066Y001066D01*
X007066Y002326D01*
X007066Y003034D02*
X007066Y004294D01*
X009389Y004294D01*
X010196Y003034D02*
X010176Y003111D01*
X010153Y003186D01*
X010125Y003260D01*
X010094Y003332D01*
X010059Y003403D01*
X010021Y003472D01*
X009979Y003538D01*
X009934Y003603D01*
X009886Y003665D01*
X009834Y003725D01*
X009780Y003782D01*
X009723Y003836D01*
X009663Y003888D01*
X009601Y003936D01*
X009536Y003981D01*
X009469Y004022D01*
X009400Y004060D01*
X009329Y004095D01*
X009257Y004126D01*
X009183Y004154D01*
X009108Y004177D01*
X009032Y004197D01*
X008954Y004213D01*
X008876Y004225D01*
X008798Y004233D01*
X008719Y004237D01*
X008641Y004237D01*
X008562Y004233D01*
X008484Y004225D01*
X008406Y004213D01*
X008328Y004197D01*
X008252Y004177D01*
X008177Y004154D01*
X008103Y004126D01*
X008031Y004095D01*
X007960Y004060D01*
X007891Y004022D01*
X007824Y003981D01*
X007759Y003936D01*
X007697Y003888D01*
X007637Y003836D01*
X007580Y003782D01*
X007526Y003725D01*
X007474Y003665D01*
X007426Y003603D01*
X007381Y003538D01*
X007339Y003472D01*
X007301Y003403D01*
X007266Y003332D01*
X007235Y003260D01*
X007207Y003186D01*
X007184Y003111D01*
X007164Y003034D01*
X007164Y002326D02*
X007184Y002249D01*
X007207Y002174D01*
X007235Y002100D01*
X007266Y002028D01*
X007301Y001957D01*
X007339Y001888D01*
X007381Y001822D01*
X007426Y001757D01*
X007474Y001695D01*
X007526Y001635D01*
X007580Y001578D01*
X007637Y001524D01*
X007697Y001472D01*
X007759Y001424D01*
X007824Y001379D01*
X007891Y001338D01*
X007960Y001300D01*
X008031Y001265D01*
X008103Y001234D01*
X008177Y001206D01*
X008252Y001183D01*
X008328Y001163D01*
X008406Y001147D01*
X008484Y001135D01*
X008562Y001127D01*
X008641Y001123D01*
X008719Y001123D01*
X008798Y001127D01*
X008876Y001135D01*
X008954Y001147D01*
X009032Y001163D01*
X009108Y001183D01*
X009183Y001206D01*
X009257Y001234D01*
X009329Y001265D01*
X009400Y001300D01*
X009469Y001338D01*
X009536Y001379D01*
X009601Y001424D01*
X009663Y001472D01*
X009723Y001524D01*
X009780Y001578D01*
X009834Y001635D01*
X009886Y001695D01*
X009934Y001757D01*
X009979Y001822D01*
X010021Y001888D01*
X010059Y001957D01*
X010094Y002028D01*
X010125Y002100D01*
X010153Y002174D01*
X010176Y002249D01*
X010196Y002326D01*
X016458Y007778D02*
X016458Y010582D01*
X015688Y010286D02*
X015688Y008672D01*
X012578Y008672D01*
X011672Y009578D01*
X011672Y010286D01*
X011672Y011074D02*
X011672Y011782D01*
X012578Y012688D01*
X015688Y012688D01*
X015688Y011074D01*
X015833Y011819D02*
X015526Y011819D01*
X015450Y011896D01*
X015450Y012049D01*
X015526Y012126D01*
X015680Y012126D02*
X015680Y011972D01*
X015680Y012126D02*
X015833Y012126D01*
X015910Y012049D01*
X015910Y011896D01*
X015833Y011819D01*
X015910Y012279D02*
X015450Y012279D01*
X015910Y012586D01*
X015450Y012586D01*
X015450Y012740D02*
X015450Y012970D01*
X015526Y013047D01*
X015833Y013047D01*
X015910Y012970D01*
X015910Y012740D01*
X015450Y012740D01*
X014910Y012970D02*
X014450Y012970D01*
X014680Y012740D01*
X014680Y013047D01*
X013910Y013047D02*
X013910Y012740D01*
X013910Y012893D02*
X013450Y012893D01*
X013603Y012740D01*
X012910Y012816D02*
X012833Y012740D01*
X012526Y013047D01*
X012833Y013047D01*
X012910Y012970D01*
X012910Y012816D01*
X012833Y012740D02*
X012526Y012740D01*
X012450Y012816D01*
X012450Y012970D01*
X012526Y013047D01*
X011910Y012970D02*
X011910Y012816D01*
X011833Y012740D01*
X011680Y012893D02*
X011680Y012970D01*
X011757Y013047D01*
X011833Y013047D01*
X011910Y012970D01*
X011680Y012970D02*
X011603Y013047D01*
X011526Y013047D01*
X011450Y012970D01*
X011450Y012816D01*
X011526Y012740D01*
X011603Y012586D02*
X011910Y012433D01*
X011603Y012279D01*
X011603Y012126D02*
X011680Y012049D01*
X011757Y012126D01*
X011833Y012126D01*
X011910Y012049D01*
X011910Y011896D01*
X011833Y011819D01*
X011680Y011972D02*
X011680Y012049D01*
X011603Y012126D02*
X011526Y012126D01*
X011450Y012049D01*
X011450Y011896D01*
X011526Y011819D01*
X011770Y010286D02*
X011790Y010201D01*
X011813Y010117D01*
X011840Y010034D01*
X011871Y009952D01*
X011905Y009872D01*
X011944Y009793D01*
X011985Y009716D01*
X012030Y009641D01*
X012078Y009568D01*
X012130Y009497D01*
X012184Y009429D01*
X012242Y009363D01*
X012302Y009300D01*
X012365Y009240D01*
X012431Y009182D01*
X012500Y009128D01*
X012570Y009076D01*
X012643Y009028D01*
X012719Y008984D01*
X012796Y008942D01*
X012874Y008904D01*
X012955Y008870D01*
X013037Y008839D01*
X013120Y008812D01*
X013204Y008789D01*
X013289Y008770D01*
X013375Y008754D01*
X013462Y008742D01*
X013549Y008734D01*
X013636Y008730D01*
X013724Y008730D01*
X013811Y008734D01*
X013898Y008742D01*
X013985Y008754D01*
X014071Y008770D01*
X014156Y008789D01*
X014240Y008812D01*
X014323Y008839D01*
X014405Y008870D01*
X014486Y008904D01*
X014564Y008942D01*
X014641Y008984D01*
X014717Y009028D01*
X014790Y009076D01*
X014860Y009128D01*
X014929Y009182D01*
X014995Y009240D01*
X015058Y009300D01*
X015118Y009363D01*
X015176Y009429D01*
X015230Y009497D01*
X015282Y009568D01*
X015330Y009641D01*
X015375Y009716D01*
X015416Y009793D01*
X015455Y009872D01*
X015489Y009952D01*
X015520Y010034D01*
X015547Y010117D01*
X015570Y010201D01*
X015590Y010286D01*
X015590Y011074D02*
X015570Y011159D01*
X015547Y011243D01*
X015520Y011326D01*
X015489Y011408D01*
X015455Y011488D01*
X015416Y011567D01*
X015375Y011644D01*
X015330Y011719D01*
X015282Y011792D01*
X015230Y011863D01*
X015176Y011931D01*
X015118Y011997D01*
X015058Y012060D01*
X014995Y012120D01*
X014929Y012178D01*
X014860Y012232D01*
X014790Y012284D01*
X014717Y012332D01*
X014641Y012376D01*
X014564Y012418D01*
X014486Y012456D01*
X014405Y012490D01*
X014323Y012521D01*
X014240Y012548D01*
X014156Y012571D01*
X014071Y012590D01*
X013985Y012606D01*
X013898Y012618D01*
X013811Y012626D01*
X013724Y012630D01*
X013636Y012630D01*
X013549Y012626D01*
X013462Y012618D01*
X013375Y012606D01*
X013289Y012590D01*
X013204Y012571D01*
X013120Y012548D01*
X013037Y012521D01*
X012955Y012490D01*
X012874Y012456D01*
X012796Y012418D01*
X012719Y012376D01*
X012643Y012332D01*
X012570Y012284D01*
X012500Y012232D01*
X012431Y012178D01*
X012365Y012120D01*
X012302Y012060D01*
X012242Y011997D01*
X012184Y011931D01*
X012130Y011863D01*
X012078Y011792D01*
X012030Y011719D01*
X011985Y011644D01*
X011944Y011567D01*
X011905Y011488D01*
X011871Y011408D01*
X011840Y011326D01*
X011813Y011243D01*
X011790Y011159D01*
X011770Y011074D01*
X016450Y012433D02*
X016910Y012433D01*
X016910Y012586D02*
X016910Y012279D01*
X016603Y012279D02*
X016450Y012433D01*
X016450Y012740D02*
X016450Y013047D01*
X016526Y013047D01*
X016833Y012740D01*
X016910Y012740D01*
X017450Y012893D02*
X017603Y012740D01*
X017603Y012586D02*
X017526Y012586D01*
X017450Y012509D01*
X017450Y012356D01*
X017526Y012279D01*
X017603Y012586D02*
X017910Y012279D01*
X017910Y012586D01*
X017910Y012740D02*
X017910Y013047D01*
X017910Y012893D02*
X017450Y012893D01*
X018450Y012816D02*
X018526Y012740D01*
X018450Y012816D02*
X018450Y012970D01*
X018526Y013047D01*
X018603Y013047D01*
X018910Y012740D01*
X018910Y013047D01*
X019450Y012970D02*
X019450Y012816D01*
X019526Y012740D01*
X019603Y012586D02*
X019910Y012433D01*
X019603Y012279D01*
X019603Y012126D02*
X019680Y012049D01*
X019757Y012126D01*
X019833Y012126D01*
X019910Y012049D01*
X019910Y011896D01*
X019833Y011819D01*
X019680Y011972D02*
X019680Y012049D01*
X019603Y012126D02*
X019526Y012126D01*
X019450Y012049D01*
X019450Y011896D01*
X019526Y011819D01*
X018910Y012279D02*
X018603Y012586D01*
X018526Y012586D01*
X018450Y012509D01*
X018450Y012356D01*
X018526Y012279D01*
X018910Y012279D02*
X018910Y012586D01*
X019450Y012970D02*
X019526Y013047D01*
X019603Y013047D01*
X019680Y012970D01*
X019757Y013047D01*
X019833Y013047D01*
X019910Y012970D01*
X019910Y012816D01*
X019833Y012740D01*
X019680Y012893D02*
X019680Y012970D01*
X020450Y012970D02*
X020450Y012816D01*
X020526Y012740D01*
X020833Y012740D01*
X020526Y013047D01*
X020833Y013047D01*
X020910Y012970D01*
X020910Y012816D01*
X020833Y012740D01*
X020910Y012586D02*
X020910Y012279D01*
X020910Y012433D02*
X020450Y012433D01*
X020603Y012279D01*
X020450Y012970D02*
X020526Y013047D01*
X021450Y012970D02*
X021450Y012816D01*
X021526Y012740D01*
X021603Y012740D01*
X021680Y012816D01*
X021680Y013047D01*
X021833Y013047D02*
X021526Y013047D01*
X021450Y012970D01*
X021833Y013047D02*
X021910Y012970D01*
X021910Y012816D01*
X021833Y012740D01*
X022450Y012893D02*
X022603Y012740D01*
X022450Y012893D02*
X022910Y012893D01*
X022910Y012740D02*
X022910Y013047D01*
X023450Y012970D02*
X023450Y012740D01*
X023910Y012740D01*
X023910Y012970D01*
X023833Y013047D01*
X023526Y013047D01*
X023450Y012970D01*
X023450Y012586D02*
X023910Y012586D01*
X023450Y012279D01*
X023910Y012279D01*
X023833Y012126D02*
X023680Y012126D01*
X023680Y011972D01*
X023833Y011819D02*
X023526Y011819D01*
X023450Y011896D01*
X023450Y012049D01*
X023526Y012126D01*
X023833Y012126D02*
X023910Y012049D01*
X023910Y011896D01*
X023833Y011819D01*
X022910Y012279D02*
X022910Y012586D01*
X022910Y012433D02*
X022450Y012433D01*
X022603Y012279D01*
X018902Y010582D02*
X018902Y007778D01*
X018910Y016200D02*
X018603Y016507D01*
X018526Y016507D01*
X018450Y016430D01*
X018450Y016277D01*
X018526Y016200D01*
X018910Y016200D02*
X018910Y016507D01*
X018833Y016660D02*
X018910Y016737D01*
X018910Y016891D01*
X018833Y016967D01*
X018757Y016967D01*
X018680Y016891D01*
X018680Y016814D01*
X018680Y016891D02*
X018603Y016967D01*
X018526Y016967D01*
X018450Y016891D01*
X018450Y016737D01*
X018526Y016660D01*
X017910Y016660D02*
X017450Y016660D01*
X017910Y016967D01*
X017450Y016967D01*
X017450Y017121D02*
X017450Y017351D01*
X017526Y017428D01*
X017833Y017428D01*
X017910Y017351D01*
X017910Y017121D01*
X017450Y017121D01*
X016910Y016891D02*
X016910Y016737D01*
X016833Y016660D01*
X016757Y016660D01*
X016680Y016737D01*
X016680Y016891D01*
X016757Y016967D01*
X016833Y016967D01*
X016910Y016891D01*
X016680Y016891D02*
X016603Y016967D01*
X016526Y016967D01*
X016450Y016891D01*
X016450Y016737D01*
X016526Y016660D01*
X016603Y016660D01*
X016680Y016737D01*
X016910Y016507D02*
X016910Y016200D01*
X016910Y016353D02*
X016450Y016353D01*
X016603Y016200D01*
X015910Y016200D02*
X015910Y016507D01*
X015910Y016353D02*
X015450Y016353D01*
X015603Y016200D01*
X015680Y016660D02*
X015450Y016660D01*
X015450Y016967D01*
X015603Y016891D02*
X015680Y016967D01*
X015833Y016967D01*
X015910Y016891D01*
X015910Y016737D01*
X015833Y016660D01*
X015680Y016660D02*
X015603Y016814D01*
X015603Y016891D01*
X014910Y016891D02*
X014450Y016891D01*
X014680Y016660D01*
X014680Y016967D01*
X014910Y016507D02*
X014910Y016200D01*
X014910Y016353D02*
X014450Y016353D01*
X014603Y016200D01*
X013910Y016277D02*
X013833Y016200D01*
X013526Y016200D01*
X013450Y016277D01*
X013450Y016430D01*
X013526Y016507D01*
X013680Y016507D02*
X013680Y016353D01*
X013680Y016507D02*
X013833Y016507D01*
X013910Y016430D01*
X013910Y016277D01*
X013910Y016660D02*
X013450Y016660D01*
X013910Y016967D01*
X013450Y016967D01*
X013450Y017121D02*
X013450Y017351D01*
X013526Y017428D01*
X013833Y017428D01*
X013910Y017351D01*
X013910Y017121D01*
X013450Y017121D01*
X012910Y016814D02*
X012603Y016967D01*
X012603Y016660D02*
X012910Y016814D01*
X012833Y016507D02*
X012910Y016430D01*
X012910Y016277D01*
X012833Y016200D01*
X012680Y016200D02*
X012603Y016353D01*
X012603Y016430D01*
X012680Y016507D01*
X012833Y016507D01*
X012450Y016507D02*
X012450Y016200D01*
X012680Y016200D01*
X011910Y016277D02*
X011833Y016200D01*
X011910Y016277D02*
X011910Y016430D01*
X011833Y016507D01*
X011680Y016507D01*
X011603Y016430D01*
X011603Y016353D01*
X011680Y016200D01*
X011450Y016200D01*
X011450Y016507D01*
X011603Y016660D02*
X011910Y016814D01*
X011603Y016967D01*
X017450Y016430D02*
X017450Y016277D01*
X017526Y016200D01*
X017833Y016200D01*
X017910Y016277D01*
X017910Y016430D01*
X017833Y016507D01*
X017680Y016507D01*
X017680Y016353D01*
X017526Y016507D02*
X017450Y016430D01*
X019450Y016430D02*
X019450Y016277D01*
X019526Y016200D01*
X019450Y016430D02*
X019526Y016507D01*
X019603Y016507D01*
X019910Y016200D01*
X019910Y016507D01*
X019680Y016660D02*
X019680Y016967D01*
X019910Y016891D02*
X019450Y016891D01*
X019680Y016660D01*
X020450Y016660D02*
X020910Y016967D01*
X020450Y016967D01*
X020450Y017121D02*
X020450Y017351D01*
X020526Y017428D01*
X020833Y017428D01*
X020910Y017351D01*
X020910Y017121D01*
X020450Y017121D01*
X020450Y016660D02*
X020910Y016660D01*
X020833Y016507D02*
X020680Y016507D01*
X020680Y016353D01*
X020833Y016200D02*
X020526Y016200D01*
X020450Y016277D01*
X020450Y016430D01*
X020526Y016507D01*
X020833Y016507D02*
X020910Y016430D01*
X020910Y016277D01*
X020833Y016200D01*
X021450Y016277D02*
X021526Y016200D01*
X021450Y016277D02*
X021450Y016430D01*
X021526Y016507D01*
X021603Y016507D01*
X021910Y016200D01*
X021910Y016507D01*
X021833Y016660D02*
X021910Y016737D01*
X021910Y016891D01*
X021833Y016967D01*
X021680Y016967D01*
X021603Y016891D01*
X021603Y016814D01*
X021680Y016660D01*
X021450Y016660D01*
X021450Y016967D01*
X022450Y016430D02*
X022450Y016277D01*
X022526Y016200D01*
X022603Y016200D01*
X022680Y016277D01*
X022680Y016430D01*
X022757Y016507D01*
X022833Y016507D01*
X022910Y016430D01*
X022910Y016277D01*
X022833Y016200D01*
X022757Y016200D01*
X022680Y016277D01*
X022680Y016430D02*
X022603Y016507D01*
X022526Y016507D01*
X022450Y016430D01*
X023450Y016507D02*
X023450Y016200D01*
X023526Y016507D02*
X023833Y016200D01*
X023910Y016200D01*
X023526Y016507D02*
X023450Y016507D01*
D16*
X017680Y008599D03*
D17*
X008680Y009430D02*
X006680Y007430D01*
X004680Y007430D01*
X002680Y009430D01*
X002680Y011430D01*
X004680Y013430D01*
X006680Y013430D01*
X008680Y011430D01*
X008680Y009430D01*
X008430Y008930D02*
X008430Y010430D01*
X007680Y009430D02*
X007930Y008430D01*
X008180Y008680D02*
X008180Y012180D01*
X003555Y010430D02*
X003557Y010522D01*
X003563Y010614D01*
X003573Y010705D01*
X003587Y010796D01*
X003605Y010887D01*
X003626Y010976D01*
X003652Y011065D01*
X003681Y011152D01*
X003715Y011238D01*
X003751Y011322D01*
X003792Y011405D01*
X003836Y011486D01*
X003883Y011565D01*
X003934Y011642D01*
X003988Y011716D01*
X004046Y011788D01*
X004106Y011858D01*
X004169Y011924D01*
X004235Y011988D01*
X004304Y012050D01*
X004376Y012108D01*
X004450Y012163D01*
X004526Y012214D01*
X004604Y012263D01*
X004685Y012307D01*
X004767Y012349D01*
X004851Y012387D01*
X004936Y012421D01*
X005023Y012451D01*
X005112Y012478D01*
X005201Y012500D01*
X005291Y012519D01*
X005382Y012534D01*
X005473Y012545D01*
X005565Y012552D01*
X005657Y012555D01*
X005749Y012554D01*
X005841Y012549D01*
X005933Y012540D01*
X006024Y012527D01*
X006114Y012510D01*
X006204Y012489D01*
X006293Y012465D01*
X006380Y012436D01*
X006467Y012404D01*
X006551Y012368D01*
X006634Y012329D01*
X006716Y012285D01*
X006795Y012239D01*
X006873Y012189D01*
X006948Y012136D01*
X007020Y012079D01*
X007090Y012019D01*
X007158Y011957D01*
X007223Y011891D01*
X007285Y011823D01*
X007343Y011752D01*
X007399Y011679D01*
X007452Y011603D01*
X007501Y011526D01*
X007547Y011446D01*
X007589Y011364D01*
X007627Y011280D01*
X007662Y011195D01*
X007694Y011109D01*
X007721Y011021D01*
X007745Y010932D01*
X007765Y010842D01*
X007781Y010751D01*
X007793Y010660D01*
X007801Y010568D01*
X007805Y010476D01*
X007805Y010384D01*
X007801Y010292D01*
X007793Y010200D01*
X007781Y010109D01*
X007765Y010018D01*
X007745Y009928D01*
X007721Y009839D01*
X007694Y009751D01*
X007662Y009665D01*
X007627Y009580D01*
X007589Y009496D01*
X007547Y009414D01*
X007501Y009334D01*
X007452Y009257D01*
X007399Y009181D01*
X007343Y009108D01*
X007285Y009037D01*
X007223Y008969D01*
X007158Y008903D01*
X007090Y008841D01*
X007020Y008781D01*
X006948Y008724D01*
X006873Y008671D01*
X006795Y008621D01*
X006716Y008575D01*
X006634Y008531D01*
X006551Y008492D01*
X006467Y008456D01*
X006380Y008424D01*
X006293Y008395D01*
X006204Y008371D01*
X006114Y008350D01*
X006024Y008333D01*
X005933Y008320D01*
X005841Y008311D01*
X005749Y008306D01*
X005657Y008305D01*
X005565Y008308D01*
X005473Y008315D01*
X005382Y008326D01*
X005291Y008341D01*
X005201Y008360D01*
X005112Y008382D01*
X005023Y008409D01*
X004936Y008439D01*
X004851Y008473D01*
X004767Y008511D01*
X004685Y008553D01*
X004604Y008597D01*
X004526Y008646D01*
X004450Y008697D01*
X004376Y008752D01*
X004304Y008810D01*
X004235Y008872D01*
X004169Y008936D01*
X004106Y009002D01*
X004046Y009072D01*
X003988Y009144D01*
X003934Y009218D01*
X003883Y009295D01*
X003836Y009374D01*
X003792Y009455D01*
X003751Y009538D01*
X003715Y009622D01*
X003681Y009708D01*
X003652Y009795D01*
X003626Y009884D01*
X003605Y009973D01*
X003587Y010064D01*
X003573Y010155D01*
X003563Y010246D01*
X003557Y010338D01*
X003555Y010430D01*
X002930Y010430D02*
X002930Y008930D01*
X003180Y008680D02*
X003180Y012180D01*
X004180Y010430D02*
X004182Y010461D01*
X004188Y010492D01*
X004198Y010522D01*
X004211Y010550D01*
X004228Y010577D01*
X004248Y010601D01*
X004271Y010623D01*
X004296Y010641D01*
X004324Y010656D01*
X004353Y010668D01*
X004383Y010676D01*
X004414Y010680D01*
X004446Y010680D01*
X004477Y010676D01*
X004507Y010668D01*
X004536Y010656D01*
X004564Y010641D01*
X004589Y010623D01*
X004612Y010601D01*
X004632Y010577D01*
X004649Y010550D01*
X004662Y010522D01*
X004672Y010492D01*
X004678Y010461D01*
X004680Y010430D01*
X004678Y010399D01*
X004672Y010368D01*
X004662Y010338D01*
X004649Y010310D01*
X004632Y010283D01*
X004612Y010259D01*
X004589Y010237D01*
X004564Y010219D01*
X004536Y010204D01*
X004507Y010192D01*
X004477Y010184D01*
X004446Y010180D01*
X004414Y010180D01*
X004383Y010184D01*
X004353Y010192D01*
X004324Y010204D01*
X004296Y010219D01*
X004271Y010237D01*
X004248Y010259D01*
X004228Y010283D01*
X004211Y010310D01*
X004198Y010338D01*
X004188Y010368D01*
X004182Y010399D01*
X004180Y010430D01*
X003680Y009430D02*
X003430Y008430D01*
D18*
X009261Y006180D03*
M02*
