G75*
%MOIN*%
%OFA0B0*%
%FSLAX24Y24*%
%IPPOS*%
%LPD*%
%AMOC8*
5,1,8,0,0,1.08239X$1,22.5*
%
%ADD10R,0.0946X0.0316*%
%ADD11C,0.0680*%
%ADD12R,0.4332X0.4178*%
%ADD13R,0.0500X0.0930*%
%ADD14R,0.1576X0.1182*%
%ADD15R,0.1615X0.0710*%
%ADD16OC8,0.1580*%
%ADD17R,0.1576X0.0631*%
%ADD18R,0.1655X0.3623*%
%ADD19R,0.1182X0.1576*%
%ADD20C,0.0940*%
%ADD21R,0.0474X0.0474*%
%ADD22C,0.0595*%
%ADD23R,0.0580X0.0330*%
%ADD24C,0.0671*%
%ADD25C,0.0516*%
D10*
X018499Y004393D03*
X018499Y004786D03*
X018499Y005180D03*
X018499Y005574D03*
X018499Y005967D03*
X020861Y005967D03*
X020861Y005574D03*
X020861Y005180D03*
X020861Y004786D03*
X020861Y004393D03*
D11*
X021904Y004141D02*
X022504Y004141D01*
X022504Y003141D02*
X021904Y003141D01*
X021904Y002141D02*
X022504Y002141D01*
X019930Y001880D02*
X019930Y002480D01*
X018930Y002480D02*
X018930Y001880D01*
X017930Y001880D02*
X017930Y002480D01*
X016930Y002480D02*
X016930Y001880D01*
D12*
X013680Y004180D03*
D13*
X013680Y007460D03*
X014350Y007460D03*
X015020Y007460D03*
X013010Y007460D03*
X012340Y007460D03*
D14*
X017680Y007723D03*
X017680Y010637D03*
D15*
X015353Y010680D03*
X012007Y010680D03*
D16*
X004680Y004180D03*
X004680Y002180D03*
D17*
X007499Y002680D03*
X009861Y002680D03*
D18*
X009113Y010430D03*
X002239Y010430D03*
D19*
X007223Y006180D03*
X010137Y006180D03*
D20*
X002180Y001971D03*
X002180Y003349D03*
D21*
X008680Y012680D03*
D22*
X011680Y014180D03*
X011680Y015180D03*
X012680Y015180D03*
X013680Y015180D03*
X014680Y015180D03*
X015680Y015180D03*
X016680Y015180D03*
X017680Y015180D03*
X018680Y015180D03*
X019680Y015180D03*
X020680Y015180D03*
X021680Y015180D03*
X022680Y015180D03*
X023680Y015180D03*
X023680Y014180D03*
X022680Y014180D03*
X021680Y014180D03*
X020680Y014180D03*
X019680Y014180D03*
X018680Y014180D03*
X017680Y014180D03*
X016680Y014180D03*
X015680Y014180D03*
X014680Y014180D03*
X013680Y014180D03*
X012680Y014180D03*
D23*
X019430Y009880D03*
X019430Y009480D03*
X019930Y010480D03*
X019930Y010880D03*
X020680Y009880D03*
X020680Y009480D03*
X021180Y010480D03*
X021180Y010880D03*
D24*
X017680Y011680D03*
X013680Y009180D03*
X013680Y008430D03*
X011680Y008430D03*
X011680Y007680D03*
X005680Y009180D03*
X017680Y006180D03*
X020930Y003680D03*
D25*
X010680Y001680D03*
M02*
