%
M48
M72
T01C0.0276
T02C0.0315
T03C0.0394
T04C0.0400
T05C0.0550
%
T01
X10680Y1680
T02
X11680Y14180
X11680Y15180
X12680Y15180
X13680Y15180
X14680Y15180
X15680Y15180
X16680Y15180
X17680Y15180
X18680Y15180
X19680Y15180
X20680Y15180
X21680Y15180
X22680Y15180
X23680Y15180
X23680Y14180
X22680Y14180
X21680Y14180
X20680Y14180
X19680Y14180
X18680Y14180
X17680Y14180
X16680Y14180
X15680Y14180
X14680Y14180
X13680Y14180
X12680Y14180
T03
X2180Y1971
X2180Y3349
X5680Y9180
X11680Y8430
X11680Y7680
X13680Y8430
X13680Y9180
X17680Y11680
X17680Y6180
X20930Y3680
T04
X22204Y4141
X22204Y3141
X22204Y2141
X19930Y2180
X18930Y2180
X17930Y2180
X16930Y2180
T05
X4680Y2180
X4680Y4180
M30
